<svg width="32" height="30" viewBox="0 0 32 30" fill="none" xmlns="http://www.w3.org/2000/svg">
<path d="M22 17.6111C22.7037 17.6111 23.3148 17.3519 23.8333 16.8333C24.3519 16.3148 24.6111 15.6991 24.6111 14.9861C24.6111 14.2732 24.3519 13.662 23.8333 13.1528C23.3148 12.6435 22.7037 12.3889 22 12.3889C21.2963 12.3889 20.6852 12.6435 20.1667 13.1528C19.6481 13.662 19.3889 14.2732 19.3889 14.9861C19.3889 15.6991 19.6481 16.3148 20.1667 16.8333C20.6852 17.3519 21.2963 17.6111 22 17.6111ZM2.77775 30C2.04628 30 1.40046 29.7245 0.840292 29.1736C0.280097 28.6227 0 27.9722 0 27.2222V2.77775C0 2.04628 0.280097 1.40046 0.840292 0.840292C1.40046 0.280097 2.04628 0 2.77775 0H27.2222C27.9722 0 28.6227 0.280097 29.1736 0.840292C29.7245 1.40046 30 2.04628 30 2.77775V7.88892H27.2222V2.77775H2.77775V27.2222H27.2222V22.1389H30V27.2222C30 27.9722 29.7245 28.6227 29.1736 29.1736C28.6227 29.7245 27.9722 30 27.2222 30H2.77775ZM17.1667 22.9722C16.2315 22.9722 15.4699 22.6782 14.882 22.0903C14.294 21.5023 14 20.75 14 19.8333V10.1945C14 9.25926 14.294 8.50232 14.882 7.92362C15.4699 7.34493 16.2315 7.05558 17.1667 7.05558H28.5555C29.4907 7.05558 30.2523 7.34493 30.8403 7.92362C31.4282 8.50232 31.7222 9.25926 31.7222 10.1945V19.8333C31.7222 20.75 31.4282 21.5023 30.8403 22.0903C30.2523 22.6782 29.4907 22.9722 28.5555 22.9722H17.1667ZM28.9445 20.1945V9.83333H16.7778V20.1945H28.9445Z" fill="#352B2B"/>
</svg>
