<svg width="15" height="14" viewBox="0 0 15 14" fill="none" xmlns="http://www.w3.org/2000/svg">
<path d="M8.6165 5.8668L5.78317 3.03346L6.73317 2.10013L8.6165 3.98346L12.3998 0.216797L13.3332 1.15013L8.6165 5.8668ZM9.33317 13.5001L4.6665 12.2001V13.1668H0.666504V5.83346H5.9665L10.0998 7.3668C10.4665 7.50013 10.7637 7.73346 10.9915 8.0668C11.2193 8.40013 11.3332 8.7668 11.3332 9.1668H12.6665C13.2221 9.1668 13.6943 9.35013 14.0832 9.7168C14.4721 10.0835 14.6665 10.5668 14.6665 11.1668V11.8335L9.33317 13.5001ZM1.99984 11.8335H3.33317V7.1668H1.99984V11.8335ZM9.29984 12.1001L13.2665 10.8668C13.2332 10.7446 13.1582 10.6529 13.0415 10.5918C12.9248 10.5307 12.7998 10.5001 12.6665 10.5001H9.4665C9.12206 10.5001 8.81095 10.4779 8.53317 10.4335C8.25539 10.389 7.95539 10.3112 7.63317 10.2001L6.48317 9.80013L6.8665 8.53346L8.19984 8.9668C8.39984 9.03346 8.63317 9.08346 8.89984 9.1168C9.1665 9.15013 9.53317 9.1668 9.99984 9.1668C9.99984 9.04457 9.96373 8.92791 9.8915 8.8168C9.81928 8.70569 9.73317 8.63346 9.63317 8.60013L5.73317 7.1668H4.6665V10.8335L9.29984 12.1001Z" fill="#A8A7A7"/>
</svg>
