<svg width="18" height="18" viewBox="0 0 18 18" fill="none" xmlns="http://www.w3.org/2000/svg">
<path d="M16.95 18C14.8 18 12.7042 17.5208 10.6625 16.5625C8.62083 15.6042 6.8125 14.3375 5.2375 12.7625C3.6625 11.1875 2.39583 9.37917 1.4375 7.3375C0.479167 5.29583 0 3.2 0 1.05C0 0.75 0.1 0.5 0.3 0.3C0.5 0.1 0.75 0 1.05 0H5.1C5.33333 0 5.54167 0.075 5.725 0.225C5.90833 0.375 6.01667 0.566667 6.05 0.8L6.7 4.3C6.73333 4.53333 6.72917 4.74583 6.6875 4.9375C6.64583 5.12917 6.55 5.3 6.4 5.45L3.975 7.9C4.675 9.1 5.55417 10.225 6.6125 11.275C7.67083 12.325 8.83333 13.2333 10.1 14L12.45 11.65C12.6 11.5 12.7958 11.3875 13.0375 11.3125C13.2792 11.2375 13.5167 11.2167 13.75 11.25L17.2 11.95C17.4333 12 17.625 12.1125 17.775 12.2875C17.925 12.4625 18 12.6667 18 12.9V16.95C18 17.25 17.9 17.5 17.7 17.7C17.5 17.9 17.25 18 16.95 18ZM3.025 6L4.675 4.35L4.25 2H2.025C2.10833 2.68333 2.225 3.35833 2.375 4.025C2.525 4.69167 2.74167 5.35 3.025 6ZM11.975 14.95C12.625 15.2333 13.2875 15.4583 13.9625 15.625C14.6375 15.7917 15.3167 15.9 16 15.95V13.75L13.65 13.275L11.975 14.95Z" fill="#FCFCFC"/>
</svg>
