<svg width="34" height="35" viewBox="0 0 34 35" fill="none" xmlns="http://www.w3.org/2000/svg">
<path d="M6.99968 20.8608H20.1386V18.083H6.99968V20.8608ZM6.99968 15.583H26.9997V12.8053H6.99968V15.583ZM6.99968 10.3052H26.9997V7.52747H6.99968V10.3052ZM0.333008 34.1663V3.61076C0.333008 2.87929 0.608466 2.23347 1.15938 1.6733C1.7103 1.11311 2.36076 0.833008 3.11076 0.833008H30.8886C31.6201 0.833008 32.2659 1.11311 32.8261 1.6733C33.3862 2.23347 33.6663 2.87929 33.6663 3.61076V24.7219C33.6663 25.4534 33.3862 26.0992 32.8261 26.6594C32.2659 27.2196 31.6201 27.4997 30.8886 27.4997H6.99968L0.333008 34.1663ZM3.11076 27.4581L5.84688 24.7219H30.8886V3.61076H3.11076V27.4581Z" fill="#352B2B"/>
</svg>
