<svg width="30" height="34" viewBox="0 0 30 34" fill="none" xmlns="http://www.w3.org/2000/svg">
<path d="M13.1111 27.5275L7.30554 21.7497L9.27775 19.7775L13.1111 23.5553L20.5556 16.1108L22.5278 18.1108L13.1111 27.5275ZM2.77775 33.6663C2.02775 33.6663 1.37729 33.3909 0.826375 32.84C0.275458 32.2891 0 31.6386 0 30.8886V5.88855C0 5.13855 0.275458 4.48809 0.826375 3.93717C1.37729 3.38623 2.02775 3.11076 2.77775 3.11076H5.13888V0.333008H8.05554V3.11076H21.9445V0.333008H24.8611V3.11076H27.2222C27.9722 3.11076 28.6227 3.38623 29.1736 3.93717C29.7245 4.48809 30 5.13855 30 5.88855V30.8886C30 31.6386 29.7245 32.2891 29.1736 32.84C28.6227 33.3909 27.9722 33.6663 27.2222 33.6663H2.77775ZM2.77775 30.8886H27.2222V13.3886H2.77775V30.8886ZM2.77775 10.6108H27.2222V5.88855H2.77775V10.6108Z" fill="#352B2B"/>
</svg>
