<svg width="34" height="32" viewBox="0 0 34 32" fill="none" xmlns="http://www.w3.org/2000/svg">
<path d="M16.9997 31.5003L14.583 29.3337C11.7775 26.8059 9.45801 24.6253 7.62467 22.792C5.79134 20.9587 4.33301 19.3128 3.24967 17.8545C2.16634 16.3962 1.4094 15.0559 0.978841 13.8337C0.548286 12.6114 0.333008 11.3614 0.333008 10.0837C0.333008 7.47255 1.20801 5.29199 2.95801 3.54199C4.70801 1.79199 6.88856 0.916992 9.49967 0.916992C10.9441 0.916992 12.3191 1.22255 13.6247 1.83366C14.9302 2.44477 16.0552 3.30588 16.9997 4.41699C17.9441 3.30588 19.0691 2.44477 20.3747 1.83366C21.6802 1.22255 23.0552 0.916992 24.4997 0.916992C27.1108 0.916992 29.2913 1.79199 31.0413 3.54199C32.7913 5.29199 33.6663 7.47255 33.6663 10.0837C33.6663 11.3614 33.4511 12.6114 33.0205 13.8337C32.59 15.0559 31.833 16.3962 30.7497 17.8545C29.6663 19.3128 28.208 20.9587 26.3747 22.792C24.5413 24.6253 22.2219 26.8059 19.4163 29.3337L16.9997 31.5003ZM16.9997 27.0003C19.6663 24.6114 21.8608 22.5628 23.583 20.8545C25.3052 19.1462 26.6663 17.66 27.6663 16.3962C28.6663 15.1323 29.3608 14.0073 29.7497 13.0212C30.1386 12.035 30.333 11.0559 30.333 10.0837C30.333 8.41699 29.7775 7.0281 28.6663 5.91699C27.5552 4.80588 26.1663 4.25033 24.4997 4.25033C23.1941 4.25033 21.9858 4.61838 20.8747 5.35449C19.7636 6.0906 18.9997 7.0281 18.583 8.16699H15.4163C14.9997 7.0281 14.2358 6.0906 13.1247 5.35449C12.0136 4.61838 10.8052 4.25033 9.49967 4.25033C7.83301 4.25033 6.44412 4.80588 5.33301 5.91699C4.2219 7.0281 3.66634 8.41699 3.66634 10.0837C3.66634 11.0559 3.86079 12.035 4.24967 13.0212C4.63856 14.0073 5.33301 15.1323 6.33301 16.3962C7.33301 17.66 8.69412 19.1462 10.4163 20.8545C12.1386 22.5628 14.333 24.6114 16.9997 27.0003Z" fill="#352B2B"/>
</svg>
