<svg width="34" height="35" viewBox="0 0 34 35" fill="none" xmlns="http://www.w3.org/2000/svg">
<path d="M0.333008 25.833V2.55522C0.333008 2.13855 0.506619 1.74736 0.853841 1.38163C1.20106 1.01588 1.58301 0.833008 1.99967 0.833008H23.6386C24.0737 0.833008 24.465 1.01124 24.8122 1.36772C25.1594 1.72422 25.333 2.12005 25.333 2.55522V17.4441C25.333 17.8608 25.1594 18.252 24.8122 18.6177C24.465 18.9835 24.0737 19.1663 23.6386 19.1663H6.99968L0.333008 25.833ZM8.69413 27.4997C8.27747 27.4997 7.89088 27.3168 7.53438 26.951C7.17791 26.5853 6.99968 26.1941 6.99968 25.7775V21.9441H28.1108V7.49967H31.9997C32.4163 7.49967 32.7983 7.68255 33.1455 8.0483C33.4927 8.41402 33.6663 8.81448 33.6663 9.24967V34.1385L27.0275 27.4997H8.69413ZM22.5553 3.61076H3.11076V19.1247L5.84688 16.3886H22.5553V3.61076Z" fill="#352B2B"/>
</svg>
