<svg width="30" height="30" viewBox="0 0 30 30" fill="none" xmlns="http://www.w3.org/2000/svg">
<path d="M7.77775 23.1667C8.15739 23.1667 8.48378 23.0301 8.75692 22.757C9.03006 22.4838 9.16663 22.1574 9.16663 21.7778C9.16663 21.3982 9.03006 21.0718 8.75692 20.7986C8.48378 20.5255 8.15739 20.3889 7.77775 20.3889C7.39814 20.3889 7.07175 20.5255 6.79858 20.7986C6.52544 21.0718 6.38888 21.3982 6.38888 21.7778C6.38888 22.1574 6.52544 22.4838 6.79858 22.757C7.07175 23.0301 7.39814 23.1667 7.77775 23.1667ZM7.77775 16.3889C8.15739 16.3889 8.48378 16.2523 8.75692 15.9792C9.03006 15.706 9.16663 15.3796 9.16663 15C9.16663 14.6204 9.03006 14.294 8.75692 14.0208C8.48378 13.7477 8.15739 13.6111 7.77775 13.6111C7.39814 13.6111 7.07175 13.7477 6.79858 14.0208C6.52544 14.294 6.38888 14.6204 6.38888 15C6.38888 15.3796 6.52544 15.706 6.79858 15.9792C7.07175 16.2523 7.39814 16.3889 7.77775 16.3889ZM7.77775 9.61108C8.15739 9.61108 8.48378 9.47451 8.75692 9.20138C9.03006 8.92824 9.16663 8.60185 9.16663 8.22221C9.16663 7.8426 9.03006 7.51621 8.75692 7.24304C8.48378 6.9699 8.15739 6.83333 7.77775 6.83333C7.39814 6.83333 7.07175 6.9699 6.79858 7.24304C6.52544 7.51621 6.38888 7.8426 6.38888 8.22221C6.38888 8.60185 6.52544 8.92824 6.79858 9.20138C7.07175 9.47451 7.39814 9.61108 7.77775 9.61108ZM13.1111 23.1667H23.2222V20.3889H13.1111V23.1667ZM13.1111 16.3889H23.2222V13.6111H13.1111V16.3889ZM13.1111 9.61108H23.2222V6.83333H13.1111V9.61108ZM2.77775 30C2.02775 30 1.37729 29.7245 0.826375 29.1736C0.275458 28.6227 0 27.9722 0 27.2222V2.77775C0 2.02775 0.275458 1.37729 0.826375 0.826375C1.37729 0.275458 2.02775 0 2.77775 0H27.2222C27.9722 0 28.6227 0.275458 29.1736 0.826375C29.7245 1.37729 30 2.02775 30 2.77775V27.2222C30 27.9722 29.7245 28.6227 29.1736 29.1736C28.6227 29.7245 27.9722 30 27.2222 30H2.77775ZM2.77775 27.2222H27.2222V2.77775H2.77775V27.2222Z" fill="#352B2B"/>
</svg>
