<svg width="16" height="12" viewBox="0 0 16 12" fill="none" xmlns="http://www.w3.org/2000/svg">
<path d="M4.00008 11.3337C3.44453 11.3337 2.9723 11.1392 2.58341 10.7503C2.19453 10.3614 2.00008 9.88921 2.00008 9.33366H0.666748V2.00033C0.666748 1.63366 0.797304 1.31977 1.05841 1.05866C1.31953 0.797548 1.63341 0.666992 2.00008 0.666992H11.3334V3.33366H13.3334L15.3334 6.00033V9.33366H14.0001C14.0001 9.88921 13.8056 10.3614 13.4167 10.7503C13.0279 11.1392 12.5556 11.3337 12.0001 11.3337C11.4445 11.3337 10.9723 11.1392 10.5834 10.7503C10.1945 10.3614 10.0001 9.88921 10.0001 9.33366H6.00008C6.00008 9.88921 5.80564 10.3614 5.41675 10.7503C5.02786 11.1392 4.55564 11.3337 4.00008 11.3337ZM4.00008 10.0003C4.18897 10.0003 4.3473 9.93644 4.47508 9.80866C4.60286 9.68088 4.66675 9.52255 4.66675 9.33366C4.66675 9.14477 4.60286 8.98644 4.47508 8.85866C4.3473 8.73088 4.18897 8.66699 4.00008 8.66699C3.81119 8.66699 3.65286 8.73088 3.52508 8.85866C3.3973 8.98644 3.33341 9.14477 3.33341 9.33366C3.33341 9.52255 3.3973 9.68088 3.52508 9.80866C3.65286 9.93644 3.81119 10.0003 4.00008 10.0003ZM2.00008 8.00033H2.53341C2.7223 7.80033 2.93897 7.63921 3.18341 7.51699C3.42786 7.39477 3.70008 7.33366 4.00008 7.33366C4.30008 7.33366 4.5723 7.39477 4.81675 7.51699C5.06119 7.63921 5.27786 7.80033 5.46675 8.00033H10.0001V2.00033H2.00008V8.00033ZM12.0001 10.0003C12.189 10.0003 12.3473 9.93644 12.4751 9.80866C12.6029 9.68088 12.6667 9.52255 12.6667 9.33366C12.6667 9.14477 12.6029 8.98644 12.4751 8.85866C12.3473 8.73088 12.189 8.66699 12.0001 8.66699C11.8112 8.66699 11.6529 8.73088 11.5251 8.85866C11.3973 8.98644 11.3334 9.14477 11.3334 9.33366C11.3334 9.52255 11.3973 9.68088 11.5251 9.80866C11.6529 9.93644 11.8112 10.0003 12.0001 10.0003ZM11.3334 6.66699H14.1667L12.6667 4.66699H11.3334V6.66699Z" fill="#003052"/>
</svg>
