<svg width="22" height="16" viewBox="0 0 22 16" fill="none" xmlns="http://www.w3.org/2000/svg">
<path d="M5 16C4.16667 16 3.45833 15.7083 2.875 15.125C2.29167 14.5417 2 13.8333 2 13H0V2C0 1.45 0.195833 0.979167 0.5875 0.5875C0.979167 0.195833 1.45 0 2 0H16V4H19L22 8V13H20C20 13.8333 19.7083 14.5417 19.125 15.125C18.5417 15.7083 17.8333 16 17 16C16.1667 16 15.4583 15.7083 14.875 15.125C14.2917 14.5417 14 13.8333 14 13H8C8 13.8333 7.70833 14.5417 7.125 15.125C6.54167 15.7083 5.83333 16 5 16ZM5 14C5.28333 14 5.52083 13.9042 5.7125 13.7125C5.90417 13.5208 6 13.2833 6 13C6 12.7167 5.90417 12.4792 5.7125 12.2875C5.52083 12.0958 5.28333 12 5 12C4.71667 12 4.47917 12.0958 4.2875 12.2875C4.09583 12.4792 4 12.7167 4 13C4 13.2833 4.09583 13.5208 4.2875 13.7125C4.47917 13.9042 4.71667 14 5 14ZM2 11H2.8C3.08333 10.7 3.40833 10.4583 3.775 10.275C4.14167 10.0917 4.55 10 5 10C5.45 10 5.85833 10.0917 6.225 10.275C6.59167 10.4583 6.91667 10.7 7.2 11H14V2H2V11ZM17 14C17.2833 14 17.5208 13.9042 17.7125 13.7125C17.9042 13.5208 18 13.2833 18 13C18 12.7167 17.9042 12.4792 17.7125 12.2875C17.5208 12.0958 17.2833 12 17 12C16.7167 12 16.4792 12.0958 16.2875 12.2875C16.0958 12.4792 16 12.7167 16 13C16 13.2833 16.0958 13.5208 16.2875 13.7125C16.4792 13.9042 16.7167 14 17 14ZM16 9H20.25L18 6H16V9Z" fill="#352B2B"/>
</svg>
