<svg width="185" height="24" viewBox="0 0 185 24" fill="none" xmlns="http://www.w3.org/2000/svg">
<rect x="150.5" y="0.5" width="34" height="23" rx="3.5" fill="white" stroke="#D9D9D9"/>
<path fill-rule="evenodd" clip-rule="evenodd" d="M158.346 8.93296C158.816 8.97261 159.286 8.69506 159.58 8.34316C159.869 7.98135 160.06 7.49563 160.011 7C159.595 7.01983 159.081 7.27755 158.787 7.63936C158.518 7.95161 158.287 8.45715 158.346 8.93296ZM163.938 15.3167V7.58981H166.802C168.281 7.58981 169.314 8.62072 169.314 10.1274C169.314 11.6342 168.261 12.675 166.763 12.675H165.123V15.3167H163.938ZM160.006 9.02714C159.592 9.00301 159.214 9.1532 158.909 9.27451C158.712 9.35257 158.546 9.41868 158.42 9.41868C158.278 9.41868 158.104 9.34904 157.91 9.27085C157.655 9.16839 157.364 9.05125 157.058 9.05687C156.358 9.06679 155.707 9.46825 155.35 10.1076C154.615 11.3863 155.159 13.2796 155.869 14.3205C156.216 14.8359 156.632 15.4009 157.181 15.3811C157.422 15.3719 157.596 15.2974 157.775 15.2202C157.982 15.1314 158.197 15.0391 158.532 15.0391C158.856 15.0391 159.061 15.129 159.259 15.2152C159.446 15.2973 159.626 15.376 159.893 15.3712C160.461 15.3613 160.819 14.8557 161.166 14.3403C161.542 13.7871 161.706 13.2471 161.731 13.1652L161.734 13.1557C161.734 13.1551 161.729 13.153 161.721 13.1492C161.596 13.0911 160.637 12.6469 160.628 11.4557C160.619 10.4559 161.388 9.94937 161.509 9.86963L161.509 9.86962C161.517 9.86477 161.522 9.8615 161.524 9.85979C161.034 9.12626 160.27 9.04696 160.006 9.02714ZM171.478 15.3761C172.222 15.3761 172.913 14.9945 173.226 14.3898H173.25V15.3166H174.347V11.4706C174.347 10.3554 173.466 9.63672 172.11 9.63672C170.851 9.63672 169.921 10.3653 169.887 11.3665H170.954C171.042 10.8907 171.478 10.5784 172.075 10.5784C172.8 10.5784 173.206 10.9204 173.206 11.5499V11.9761L171.728 12.0653C170.352 12.1496 169.608 12.7195 169.608 13.7108C169.608 14.712 170.376 15.3761 171.478 15.3761ZM171.796 14.4592C171.165 14.4592 170.763 14.1519 170.763 13.6811C170.763 13.1954 171.15 12.9129 171.889 12.8683L173.206 12.784V13.2202C173.206 13.9438 172.599 14.4592 171.796 14.4592ZM177.985 15.619C177.51 16.9721 176.967 17.4181 175.811 17.4181C175.723 17.4181 175.429 17.4082 175.361 17.3884V16.4616C175.434 16.4715 175.615 16.4814 175.708 16.4814C176.232 16.4814 176.526 16.2584 176.707 15.6785L176.815 15.3365L174.807 9.71108H176.046L177.442 14.2758H177.466L178.862 9.71108H180.066L177.985 15.619ZM165.123 8.60087H166.489C167.517 8.60087 168.104 9.15598 168.104 10.1324C168.104 11.1088 167.517 11.6688 166.484 11.6688H165.123V8.60087Z" fill="black"/>
<rect x="100.5" y="0.5" width="34" height="23" rx="3.5" fill="white" stroke="#D9D9D9"/>
<path fill-rule="evenodd" clip-rule="evenodd" d="M116.53 15.7585V12.7375H118.089C118.728 12.7375 119.267 12.5234 119.707 12.1012L119.813 11.9942C120.616 11.12 120.563 9.75817 119.707 8.94941C119.279 8.52125 118.693 8.28932 118.089 8.30122H115.586V15.7585H116.53ZM116.53 11.8217V9.21703H118.113C118.453 9.21703 118.776 9.34786 119.016 9.58573C119.526 10.0853 119.538 10.9178 119.045 11.4352C118.805 11.6909 118.465 11.8336 118.113 11.8217H116.53ZM124.215 11.0546C123.81 10.6799 123.259 10.4896 122.562 10.4896C121.665 10.4896 120.991 10.8227 120.545 11.4827L121.378 12.012C121.682 11.5601 122.099 11.3341 122.626 11.3341C122.96 11.3341 123.283 11.459 123.535 11.6849C123.781 11.899 123.922 12.2083 123.922 12.5353V12.7554C123.558 12.5532 123.101 12.4461 122.538 12.4461C121.882 12.4461 121.354 12.6007 120.962 12.9159C120.569 13.2311 120.369 13.6474 120.369 14.1766C120.358 14.6583 120.563 15.1162 120.926 15.4254C121.296 15.7585 121.765 15.925 122.316 15.925C122.966 15.925 123.482 15.6336 123.875 15.0508H123.916V15.7585H124.818V12.6126C124.818 11.9525 124.619 11.4292 124.215 11.0546ZM121.653 14.8189C121.46 14.6761 121.343 14.4442 121.343 14.1944C121.343 13.9149 121.472 13.683 121.724 13.4987C121.982 13.3143 122.304 13.2192 122.685 13.2192C123.213 13.2132 123.623 13.3322 123.916 13.57C123.916 13.9744 123.758 14.3253 123.447 14.6226C123.166 14.9081 122.785 15.0686 122.386 15.0686C122.122 15.0746 121.864 14.9854 121.653 14.8189ZM126.847 18.0004L130 10.6562H128.974L127.515 14.3194H127.497L126.002 10.6562H124.977L127.046 15.4314L125.873 18.0004H126.847Z" fill="#3C4043"/>
<path d="M113.272 12.0831C113.272 11.7917 113.249 11.5003 113.202 11.2148H109.222V12.8621H111.502C111.408 13.3914 111.103 13.8671 110.658 14.1644V15.2349H112.018C112.815 14.4915 113.272 13.3914 113.272 12.0831Z" fill="#4285F4"/>
<path d="M109.222 16.2696C110.359 16.2696 111.32 15.889 112.018 15.2349L110.658 14.1645C110.277 14.4261 109.79 14.5748 109.222 14.5748C108.12 14.5748 107.188 13.8195 106.854 12.8086H105.453V13.9147C106.168 15.3598 107.628 16.2696 109.222 16.2696Z" fill="#34A853"/>
<path d="M106.854 12.8088C106.678 12.2796 106.678 11.7027 106.854 11.1675V10.0674H105.453C104.849 11.2746 104.849 12.7018 105.453 13.909L106.854 12.8088Z" fill="#FBBC04"/>
<path d="M109.222 9.40114C109.826 9.38925 110.406 9.62117 110.84 10.0434L112.047 8.81836C111.279 8.09285 110.271 7.69442 109.222 7.70631C107.628 7.70631 106.168 8.62211 105.453 10.0672L106.854 11.1733C107.188 10.1564 108.12 9.40114 109.222 9.40114Z" fill="#EA4335"/>
<rect x="50.5" y="0.5" width="34" height="23" rx="3.5" fill="white" stroke="#D9D9D9"/>
<path fill-rule="evenodd" clip-rule="evenodd" d="M67.75 17.1569C66.5584 18.1852 65.0128 18.806 63.3238 18.806C59.5551 18.806 56.5 15.7154 56.5 11.903C56.5 8.09057 59.5551 5 63.3238 5C65.0128 5 66.5584 5.62075 67.75 6.64903C68.9416 5.62075 70.4872 5 72.1762 5C75.9449 5 79 8.09057 79 11.903C79 15.7154 75.9449 18.806 72.1762 18.806C70.4872 18.806 68.9416 18.1852 67.75 17.1569Z" fill="#ED0006"/>
<path fill-rule="evenodd" clip-rule="evenodd" d="M67.75 17.1569C69.2172 15.8908 70.1475 14.0068 70.1475 11.903C70.1475 9.79917 69.2172 7.91517 67.75 6.64903C68.9416 5.62075 70.4872 5 72.1762 5C75.9449 5 79 8.09057 79 11.903C79 15.7154 75.9449 18.806 72.1762 18.806C70.4872 18.806 68.9416 18.1852 67.75 17.1569Z" fill="#F9A000"/>
<path fill-rule="evenodd" clip-rule="evenodd" d="M67.75 6.64941C69.2172 7.91555 70.1476 9.79954 70.1476 11.9033C70.1476 14.0071 69.2172 15.8911 67.75 17.1573C66.2829 15.8911 65.3525 14.0071 65.3525 11.9033C65.3525 9.79954 66.2829 7.91555 67.75 6.64941Z" fill="#FF5E00"/>
<rect x="0.5" y="0.5" width="34" height="23" rx="3.5" fill="white" stroke="#D9D9D9"/>
<path fill-rule="evenodd" clip-rule="evenodd" d="M10.6253 16.2582H8.50494L6.91495 10.1924C6.83949 9.91334 6.67925 9.66667 6.44354 9.5504C5.85531 9.25823 5.20712 9.0257 4.5 8.90843V8.6749H7.91567C8.38708 8.6749 8.74064 9.0257 8.79957 9.43313L9.62454 13.8086L11.7438 8.6749H13.8052L10.6253 16.2582ZM14.9838 16.2582H12.9813L14.6302 8.6749H16.6327L14.9838 16.2582ZM19.2234 10.7757C19.2823 10.3673 19.6359 10.1337 20.0483 10.1337C20.6965 10.0751 21.4026 10.1924 21.9919 10.4835L22.3454 8.85081C21.7562 8.61727 21.108 8.5 20.5198 8.5C18.5762 8.5 17.162 9.55041 17.162 11.0082C17.162 12.1173 18.1637 12.6996 18.8708 13.0504C19.6359 13.4002 19.9305 13.6338 19.8716 13.9835C19.8716 14.5082 19.2823 14.7418 18.6941 14.7418C17.9869 14.7418 17.2798 14.5669 16.6327 14.2747L16.2791 15.9085C16.9862 16.1996 17.7512 16.3169 18.4584 16.3169C20.6376 16.3745 21.9919 15.3251 21.9919 13.75C21.9919 11.7665 19.2234 11.6502 19.2234 10.7757ZM29 16.2582L27.41 8.6749H25.7022C25.3486 8.6749 24.9951 8.90843 24.8772 9.25823L21.9329 16.2582H23.9943L24.4058 15.1502H26.9386L27.1743 16.2582H29ZM25.9968 10.7171L26.585 13.5751H24.9361L25.9968 10.7171Z" fill="#172B85"/>
</svg>
