<svg width="28" height="28" viewBox="0 0 28 28" fill="none" xmlns="http://www.w3.org/2000/svg">
<path d="M14.0003 14.0003C12.167 14.0003 10.5975 13.3475 9.29199 12.042C7.98644 10.7364 7.33366 9.16699 7.33366 7.33366C7.33366 5.50033 7.98644 3.93088 9.29199 2.62533C10.5975 1.31977 12.167 0.666992 14.0003 0.666992C15.8337 0.666992 17.4031 1.31977 18.7087 2.62533C20.0142 3.93088 20.667 5.50033 20.667 7.33366C20.667 9.16699 20.0142 10.7364 18.7087 12.042C17.4031 13.3475 15.8337 14.0003 14.0003 14.0003ZM0.666992 27.3337V22.667C0.666992 21.7225 0.910048 20.8545 1.39616 20.0628C1.88227 19.2712 2.5281 18.667 3.33366 18.2503C5.05588 17.3892 6.80588 16.7434 8.58366 16.3128C10.3614 15.8823 12.167 15.667 14.0003 15.667C15.8337 15.667 17.6392 15.8823 19.417 16.3128C21.1948 16.7434 22.9448 17.3892 24.667 18.2503C25.4725 18.667 26.1184 19.2712 26.6045 20.0628C27.0906 20.8545 27.3337 21.7225 27.3337 22.667V27.3337H0.666992ZM4.00033 24.0003H24.0003V22.667C24.0003 22.3614 23.9239 22.0837 23.7712 21.8337C23.6184 21.5837 23.417 21.3892 23.167 21.2503C21.667 20.5003 20.1531 19.9378 18.6253 19.5628C17.0975 19.1878 15.5559 19.0003 14.0003 19.0003C12.4448 19.0003 10.9031 19.1878 9.37533 19.5628C7.84755 19.9378 6.33366 20.5003 4.83366 21.2503C4.58366 21.3892 4.38227 21.5837 4.22949 21.8337C4.07671 22.0837 4.00033 22.3614 4.00033 22.667V24.0003ZM14.0003 10.667C14.917 10.667 15.7017 10.3406 16.3545 9.68783C17.0073 9.03505 17.3337 8.25033 17.3337 7.33366C17.3337 6.41699 17.0073 5.63227 16.3545 4.97949C15.7017 4.32671 14.917 4.00033 14.0003 4.00033C13.0837 4.00033 12.2989 4.32671 11.6462 4.97949C10.9934 5.63227 10.667 6.41699 10.667 7.33366C10.667 8.25033 10.9934 9.03505 11.6462 9.68783C12.2989 10.3406 13.0837 10.667 14.0003 10.667Z" fill="#352B2B"/>
</svg>
