<svg width="20" height="20" viewBox="0 0 20 20" fill="none" xmlns="http://www.w3.org/2000/svg">
<path d="M6 20C5.45 20 4.97917 19.8042 4.5875 19.4125C4.19583 19.0208 4 18.55 4 18C4 17.45 4.19583 16.9792 4.5875 16.5875C4.97917 16.1958 5.45 16 6 16C6.55 16 7.02083 16.1958 7.4125 16.5875C7.80417 16.9792 8 17.45 8 18C8 18.55 7.80417 19.0208 7.4125 19.4125C7.02083 19.8042 6.55 20 6 20ZM16 20C15.45 20 14.9792 19.8042 14.5875 19.4125C14.1958 19.0208 14 18.55 14 18C14 17.45 14.1958 16.9792 14.5875 16.5875C14.9792 16.1958 15.45 16 16 16C16.55 16 17.0208 16.1958 17.4125 16.5875C17.8042 16.9792 18 17.45 18 18C18 18.55 17.8042 19.0208 17.4125 19.4125C17.0208 19.8042 16.55 20 16 20ZM5.15 4L7.55 9H14.55L17.3 4H5.15ZM4.2 2H18.95C19.3333 2 19.625 2.17083 19.825 2.5125C20.025 2.85417 20.0333 3.2 19.85 3.55L16.3 9.95C16.1167 10.2833 15.8708 10.5417 15.5625 10.725C15.2542 10.9083 14.9167 11 14.55 11H7.1L6 13H18V15H6C5.25 15 4.68333 14.6708 4.3 14.0125C3.91667 13.3542 3.9 12.7 4.25 12.05L5.6 9.6L2 2H0V0H3.25L4.2 2Z" fill="#FCFCFC"/>
</svg>
