<svg width="199" height="30" viewBox="0 0 199 30" fill="none" xmlns="http://www.w3.org/2000/svg">
<path d="M9.74859 29.5833C9.43911 29.5833 9.1859 29.4861 8.98896 29.2917C8.79202 29.0972 8.69355 28.8472 8.69355 28.5417V6.20833H1.01284C0.731496 6.20833 0.492353 6.11111 0.295412 5.91667C0.0984706 5.72222 0 5.48611 0 5.20833V1.45833C0 1.15278 0.0984706 0.902777 0.295412 0.708334C0.492353 0.513888 0.731496 0.416666 1.01284 0.416666H23.1265C23.436 0.416666 23.6892 0.513888 23.8861 0.708334C24.0831 0.902777 24.1816 1.15278 24.1816 1.45833V5.20833C24.1816 5.48611 24.0831 5.72222 23.8861 5.91667C23.6892 6.11111 23.436 6.20833 23.1265 6.20833H15.488V28.5417C15.488 28.8472 15.3895 29.0972 15.1926 29.2917C14.9957 29.4861 14.7425 29.5833 14.433 29.5833H9.74859Z" fill="#FCFCFC"/>
<path d="M33.7758 30C30.5404 30 27.9661 29.1111 26.0529 27.3333C24.1679 25.5556 23.1692 22.9722 23.0566 19.5833C23.0566 19.3611 23.0566 19.0694 23.0566 18.7083C23.0566 18.3194 23.0566 18.0139 23.0566 17.7917C23.1692 15.6528 23.6615 13.8194 24.5337 12.2917C25.4058 10.7361 26.6297 9.55556 28.2052 8.75C29.7808 7.91667 31.6236 7.5 33.7336 7.5C36.0969 7.5 38.0663 7.98611 39.6419 8.95833C41.2455 9.90278 42.4413 11.2083 43.229 12.875C44.0449 14.5139 44.4529 16.4028 44.4529 18.5417V19.5C44.4529 19.7778 44.3403 20.0139 44.1153 20.2083C43.9183 20.4028 43.6792 20.5 43.3978 20.5H29.5979C29.5979 20.5278 29.5979 20.5833 29.5979 20.6667C29.5979 20.7222 29.5979 20.7778 29.5979 20.8333C29.626 21.7222 29.7948 22.5417 30.1043 23.2917C30.4419 24.0139 30.9061 24.5972 31.497 25.0417C32.1159 25.4861 32.8474 25.7083 33.6914 25.7083C34.3948 25.7083 34.9716 25.6111 35.4217 25.4167C35.8719 25.2222 36.2376 24.9861 36.519 24.7083C36.8284 24.4306 37.0535 24.1944 37.1942 24C37.4474 23.7222 37.6443 23.5556 37.785 23.5C37.9538 23.4167 38.207 23.375 38.5446 23.375H42.9336C43.215 23.375 43.44 23.4583 43.6088 23.625C43.8058 23.7639 43.8902 23.9722 43.862 24.25C43.8339 24.6944 43.5948 25.25 43.1446 25.9167C42.7226 26.5556 42.0896 27.1944 41.2455 27.8333C40.4015 28.4444 39.3465 28.9583 38.0804 29.375C36.8425 29.7917 35.4076 30 33.7758 30ZM29.5979 16.7083H37.8694V16.625C37.8694 15.625 37.7006 14.7639 37.363 14.0417C37.0535 13.2917 36.5893 12.7083 35.9703 12.2917C35.3514 11.875 34.6058 11.6667 33.7336 11.6667C32.8615 11.6667 32.1159 11.875 31.497 12.2917C30.878 12.7083 30.3997 13.2917 30.0621 14.0417C29.7526 14.7639 29.5979 15.625 29.5979 16.625V16.7083Z" fill="#FCFCFC"/>
<path d="M58.42 30C56.3662 30 54.5515 29.625 52.976 28.875C51.4286 28.125 50.2047 27.0417 49.3044 25.625C48.4041 24.1806 47.9118 22.4583 47.8274 20.4583C47.7992 20.0139 47.7851 19.4583 47.7851 18.7917C47.7851 18.0972 47.7992 17.5278 47.8274 17.0833C47.9118 15.0556 48.39 13.3333 49.2622 11.9167C50.1625 10.4722 51.4004 9.375 52.976 8.625C54.5515 7.875 56.3662 7.5 58.42 7.5C60.305 7.5 61.9086 7.76389 63.231 8.29166C64.5533 8.79166 65.6365 9.43055 66.4805 10.2083C67.3245 10.9861 67.9435 11.8056 68.3374 12.6667C68.7594 13.5 68.9845 14.2361 69.0126 14.875C69.0407 15.1528 68.9423 15.4028 68.7172 15.625C68.5202 15.8194 68.2811 15.9167 67.9998 15.9167H63.4842C63.2028 15.9167 62.9778 15.8472 62.8089 15.7083C62.6683 15.5417 62.5276 15.3194 62.3869 15.0417C61.993 14.0694 61.4866 13.375 60.8677 12.9583C60.2487 12.5417 59.475 12.3333 58.5466 12.3333C57.2805 12.3333 56.2818 12.7361 55.5503 13.5417C54.8188 14.3472 54.4249 15.5972 54.3686 17.2917C54.3405 18.375 54.3405 19.3611 54.3686 20.25C54.453 21.9722 54.8469 23.2222 55.5503 24C56.2818 24.7778 57.2805 25.1667 58.5466 25.1667C59.5313 25.1667 60.319 24.9583 60.9099 24.5417C61.5007 24.125 61.993 23.4306 62.3869 22.4583C62.4995 22.1806 62.6401 21.9722 62.8089 21.8333C62.9778 21.6667 63.2028 21.5833 63.4842 21.5833H67.9998C68.2811 21.5833 68.5202 21.6944 68.7172 21.9167C68.9423 22.1111 69.0407 22.3472 69.0126 22.625C68.9845 23.0972 68.8438 23.6528 68.5906 24.2917C68.3655 24.9306 67.9857 25.5833 67.4511 26.25C66.9447 26.9167 66.2836 27.5417 65.4677 28.125C64.6518 28.6806 63.653 29.1389 62.4713 29.5C61.3178 29.8333 59.9674 30 58.42 30Z" fill="#FCFCFC"/>
<path d="M74.2067 29.5833C73.8972 29.5833 73.644 29.4861 73.4471 29.2917C73.2501 29.0972 73.1516 28.8472 73.1516 28.5417V1.04167C73.1516 0.736111 73.2501 0.486111 73.4471 0.291667C73.644 0.0972221 73.8972 0 74.2067 0H78.7645C79.0458 0 79.285 0.0972221 79.4819 0.291667C79.6788 0.486111 79.7773 0.736111 79.7773 1.04167V10.4167C80.5369 9.52778 81.4654 8.81944 82.5626 8.29166C83.6599 7.76389 84.9822 7.5 86.5296 7.5C88.1895 7.5 89.6525 7.875 90.9186 8.625C92.2127 9.34722 93.2256 10.4167 93.9571 11.8333C94.6886 13.2222 95.0543 14.9167 95.0543 16.9167V28.5417C95.0543 28.8472 94.9558 29.0972 94.7589 29.2917C94.562 29.4861 94.3088 29.5833 93.9993 29.5833H89.3993C89.118 29.5833 88.8788 29.4861 88.6819 29.2917C88.4849 29.0972 88.3865 28.8472 88.3865 28.5417V17.1667C88.3865 15.6944 88.0207 14.5556 87.2892 13.75C86.5577 12.9167 85.5167 12.5 84.1663 12.5C82.844 12.5 81.7749 12.9167 80.959 13.75C80.1712 14.5556 79.7773 15.6944 79.7773 17.1667V28.5417C79.7773 28.8472 79.6788 29.0972 79.4819 29.2917C79.285 29.4861 79.0458 29.5833 78.7645 29.5833H74.2067Z" fill="#FCFCFC"/>
<path d="M99.981 29.5833C99.6716 29.5833 99.4184 29.4861 99.2214 29.2917C99.0245 29.0694 98.926 28.8194 98.926 28.5417V25.0417C98.926 24.6528 99.0104 24.3333 99.1792 24.0833C99.348 23.8333 99.4746 23.6528 99.559 23.5417L113.739 5.95833H100.361C100.08 5.95833 99.8404 5.86111 99.6434 5.66667C99.4465 5.47222 99.348 5.23611 99.348 4.95833V1.45833C99.348 1.15278 99.4465 0.902777 99.6434 0.708334C99.8404 0.513888 100.08 0.416666 100.361 0.416666H121.082C121.391 0.416666 121.645 0.513888 121.841 0.708334C122.067 0.902777 122.179 1.15278 122.179 1.45833V4.91667C122.179 5.22222 122.123 5.5 122.01 5.75C121.898 5.97222 121.771 6.16667 121.63 6.33333L107.831 24H121.588C121.898 24 122.151 24.0972 122.348 24.2917C122.545 24.4861 122.643 24.7361 122.643 25.0417V28.5417C122.643 28.8472 122.545 29.0972 122.348 29.2917C122.151 29.4861 121.898 29.5833 121.588 29.5833H99.981Z" fill="#FCFCFC"/>
<path d="M136.525 30C134.19 30 132.234 29.625 130.659 28.875C129.083 28.0972 127.873 27 127.029 25.5833C126.213 24.1667 125.763 22.5139 125.679 20.625C125.651 20.0694 125.637 19.4444 125.637 18.75C125.637 18.0278 125.651 17.4028 125.679 16.875C125.763 14.9583 126.242 13.3056 127.114 11.9167C127.986 10.5 129.21 9.41667 130.785 8.66667C132.361 7.88889 134.274 7.5 136.525 7.5C138.747 7.5 140.646 7.88889 142.222 8.66667C143.797 9.41667 145.021 10.5 145.893 11.9167C146.766 13.3056 147.244 14.9583 147.328 16.875C147.385 17.4028 147.413 18.0278 147.413 18.75C147.413 19.4444 147.385 20.0694 147.328 20.625C147.244 22.5139 146.78 24.1667 145.936 25.5833C145.12 27 143.924 28.0972 142.349 28.875C140.773 29.625 138.832 30 136.525 30ZM136.525 25.4167C137.903 25.4167 138.944 25 139.648 24.1667C140.351 23.3056 140.731 22.0556 140.787 20.4167C140.815 20 140.829 19.4444 140.829 18.75C140.829 18.0556 140.815 17.5 140.787 17.0833C140.731 15.4722 140.351 14.2361 139.648 13.375C138.944 12.5139 137.903 12.0833 136.525 12.0833C135.146 12.0833 134.091 12.5139 133.36 13.375C132.656 14.2361 132.276 15.4722 132.22 17.0833C132.192 17.5 132.178 18.0556 132.178 18.75C132.178 19.4444 132.192 20 132.22 20.4167C132.276 22.0556 132.656 23.3056 133.36 24.1667C134.091 25 135.146 25.4167 136.525 25.4167Z" fill="#FCFCFC"/>
<path d="M152.839 29.5833C152.558 29.5833 152.319 29.4861 152.122 29.2917C151.925 29.0972 151.826 28.8472 151.826 28.5417V8.95833C151.826 8.65278 151.925 8.40278 152.122 8.20833C152.319 8.01389 152.558 7.91667 152.839 7.91667H156.975C157.285 7.91667 157.538 8.01389 157.735 8.20833C157.932 8.40278 158.03 8.65278 158.03 8.95833V10.5833C158.762 9.69444 159.704 8.95833 160.858 8.375C162.011 7.79167 163.418 7.5 165.078 7.5C166.738 7.5 168.187 7.875 169.425 8.625C170.691 9.34722 171.675 10.4167 172.379 11.8333C173.11 13.2222 173.476 14.9167 173.476 16.9167V28.5417C173.476 28.8472 173.363 29.0972 173.138 29.2917C172.941 29.4861 172.702 29.5833 172.421 29.5833H167.947C167.638 29.5833 167.385 29.4861 167.188 29.2917C166.991 29.0972 166.892 28.8472 166.892 28.5417V17.1667C166.892 15.6944 166.527 14.5556 165.795 13.75C165.092 12.9167 164.051 12.5 162.672 12.5C161.35 12.5 160.295 12.9167 159.507 13.75C158.719 14.5556 158.325 15.6944 158.325 17.1667V28.5417C158.325 28.8472 158.227 29.0972 158.03 29.2917C157.833 29.4861 157.594 29.5833 157.313 29.5833H152.839Z" fill="#FCFCFC"/>
<path d="M188.323 30C185.088 30 182.513 29.1111 180.6 27.3333C178.715 25.5556 177.716 22.9722 177.604 19.5833C177.604 19.3611 177.604 19.0694 177.604 18.7083C177.604 18.3194 177.604 18.0139 177.604 17.7917C177.716 15.6528 178.209 13.8194 179.081 12.2917C179.953 10.7361 181.177 9.55556 182.752 8.75C184.328 7.91667 186.171 7.5 188.281 7.5C190.644 7.5 192.613 7.98611 194.189 8.95833C195.793 9.90278 196.988 11.2083 197.776 12.875C198.592 14.5139 199 16.4028 199 18.5417V19.5C199 19.7778 198.887 20.0139 198.662 20.2083C198.465 20.4028 198.226 20.5 197.945 20.5H184.145C184.145 20.5278 184.145 20.5833 184.145 20.6667C184.145 20.7222 184.145 20.7778 184.145 20.8333C184.173 21.7222 184.342 22.5417 184.651 23.2917C184.989 24.0139 185.453 24.5972 186.044 25.0417C186.663 25.4861 187.395 25.7083 188.239 25.7083C188.942 25.7083 189.519 25.6111 189.969 25.4167C190.419 25.2222 190.785 24.9861 191.066 24.7083C191.376 24.4306 191.601 24.1944 191.741 24C191.995 23.7222 192.191 23.5556 192.332 23.5C192.501 23.4167 192.754 23.375 193.092 23.375H197.481C197.762 23.375 197.987 23.4583 198.156 23.625C198.353 23.7639 198.437 23.9722 198.409 24.25C198.381 24.6944 198.142 25.25 197.692 25.9167C197.27 26.5556 196.637 27.1944 195.793 27.8333C194.949 28.4444 193.894 28.9583 192.628 29.375C191.39 29.7917 189.955 30 188.323 30ZM184.145 16.7083H192.417V16.625C192.417 15.625 192.248 14.7639 191.91 14.0417C191.601 13.2917 191.136 12.7083 190.517 12.2917C189.899 11.875 189.153 11.6667 188.281 11.6667C187.409 11.6667 186.663 11.875 186.044 12.2917C185.425 12.7083 184.947 13.2917 184.609 14.0417C184.3 14.7639 184.145 15.625 184.145 16.625V16.7083Z" fill="#FCFCFC"/>
</svg>
