<svg width="12" height="14" viewBox="0 0 12 14" fill="none" xmlns="http://www.w3.org/2000/svg">
<path d="M5.30008 9.36634L9.06675 5.59967L8.11675 4.64967L5.30008 7.46634L3.90008 6.06634L2.95008 7.01634L5.30008 9.36634ZM6.00008 13.6663C4.45564 13.2775 3.18064 12.3913 2.17508 11.008C1.16953 9.62467 0.666748 8.08856 0.666748 6.39967V2.33301L6.00008 0.333008L11.3334 2.33301V6.39967C11.3334 8.08856 10.8306 9.62467 9.82508 11.008C8.81953 12.3913 7.54453 13.2775 6.00008 13.6663ZM6.00008 12.2663C7.15564 11.8997 8.11119 11.1663 8.86675 10.0663C9.6223 8.96634 10.0001 7.74412 10.0001 6.39967V3.24967L6.00008 1.74967L2.00008 3.24967V6.39967C2.00008 7.74412 2.37786 8.96634 3.13341 10.0663C3.88897 11.1663 4.84453 11.8997 6.00008 12.2663Z" fill="#352B2B"/>
</svg>
